# xmcd
#
# Track frame offsets:
#	150
#	15528
#	32716
#	50553
#	61396
#	71849
#	84078
#	95004
#	108034
#	120878
#	133364
#	146451
#	161843
#	174176
#	189421
#	206244
#	217701
#	228202
#	247460
#	265756
#	279223
#	292751
#	312575
#	319939
#	328399
#	342670
#	351228
#
# Disc length: 4794 seconds
#
# Revision: 1
# Processed by: cddbd v1.5.1PL2 Copyright (c) Steve Scherf et al.
# Submitted via: EasyCDDAExtractor 6.5.0.1
#
DISCID=9812b81b
DTITLE=No To Co
DYEAR=1900
DGENRE=
TTITLE0=Najpiekniejsza jest moja ojczyzna
TTITLE1=Wiazanka Mazowsza i Slaska
TTITLE2=Studzienny krajobraz
TTITLE3=Jare zytko
TTITLE4=Milosc jak wiersz
TTITLE5=Wieki minione
TTITLE6=Gdy sie zenil wiatr z chmurami
TTITLE7=Kolorowe szkielko
TTITLE8=Pejzaz jesienny
TTITLE9=Stary mleczarz
TTITLE10=Imieniny u sasiadki
TTITLE11=Na podwórku przy trzepaku
TTITLE12=Zielona Laczka
TTITLE13=Hej widzial ja zbójników
TTITLE14=A w niedziele gorzaleczka
TTITLE15=Kum i kuma
TTITLE16=Pijecie, pijecie
TTITLE17=Ballada o Magdalence
TTITLE18=Kasia i Gasior
TTITLE19=Dokad jedziecie Panie Michale?
TTITLE20=Prosil ci ja
TTITLE21=Z tamtej strony jezioreczka
TTITLE22=Alboz mi potrzeba zony?
TTITLE23=Smolidupka
TTITLE24=Plonie ognisko
TTITLE25=Otwarte okna
TTITLE26=Ach Franka, Franka
EXTD=
EXTT0=
EXTT1=
EXTT2=
EXTT3=
EXTT4=
EXTT5=
EXTT6=
EXTT7=
EXTT8=
EXTT9=
EXTT10=
EXTT11=
EXTT12=
EXTT13=
EXTT14=
EXTT15=
EXTT16=
EXTT17=
EXTT18=
EXTT19=
EXTT20=
EXTT21=
EXTT22=
EXTT23=
EXTT24=
EXTT25=
EXTT26=
PLAYORDER=
